<svg id="Ebene_1" data-name="Ebene 1" xmlns="http://www.w3.org/2000/svg" viewBox="0 0 232.702 60.96"><defs><style>.cls-1{fill:#003361;}.cls-2,.cls-4{fill:none;stroke:#fff;}.cls-2{stroke-width:0.665px;}.cls-3{fill:#f39200;}.cls-4{stroke-width:0.669px;}</style></defs><title>universitaet-innsbruck-logo-cmyk-farbe</title><polygon class="cls-1" points="0.337 0.665 0.337 29.045 0.337 29.377 0.669 29.377 29.05 29.377 29.382 29.377 29.382 29.045 29.382 0.665 29.382 0.332 29.05 0.332 0.669 0.332 0.337 0.332 0.337 0.665 0.337 0.665"/><polygon class="cls-2" points="0.337 0.665 0.337 29.045 0.337 29.377 0.669 29.377 29.05 29.377 29.382 29.377 29.382 29.045 29.382 0.665 29.382 0.332 29.05 0.332 0.669 0.332 0.337 0.332 0.337 0.665 0.337 0.665"/><polygon class="cls-3" points="0.335 31.921 0.335 60.29 0.335 60.625 0.669 60.625 29.04 60.625 29.374 60.625 29.374 60.29 29.374 31.921 29.374 31.586 29.04 31.586 0.669 31.586 0.335 31.586 0.335 31.921 0.335 31.921"/><polygon class="cls-4" points="0.335 31.921 0.335 60.29 0.335 60.625 0.669 60.625 29.04 60.625 29.374 60.625 29.374 60.29 29.374 31.921 29.374 31.586 29.04 31.586 0.669 31.586 0.335 31.586 0.335 31.921 0.335 31.921"/><polygon class="cls-1" points="198.133 60.275 201.77 60.275 201.77 50.119 210.593 60.275 215.817 60.275 205.485 49.267 214.657 40.507 209.703 40.507 201.77 48.53 201.77 31.971 198.133 31.971 198.133 60.275 198.133 60.275"/><path class="cls-1" d="M307.605,426.275h3.482v-2.787h.078a7.921,7.921,0,0,0,6.733,3.251c5.96,0,8.475-5.263,8.475-10.681,0-5.3-2.786-9.984-8.513-9.984-3.445,0-5.418,1.355-6.54,3.174h-.078V398.017h-3.637v28.258Zm14.9-9.946c.078,3.1-1.548,7.469-5.456,7.469-4.1,0-5.805-4.063-5.805-7.353,0-3.676,1.9-7.43,5.844-7.43s5.5,3.754,5.417,7.314Z" transform="translate(-189 -366)"/><polygon class="cls-1" points="45.98 60.252 49.618 60.252 49.618 40.516 45.98 40.516 45.98 60.252 45.98 60.252"/><polygon class="cls-1" points="45.98 35.526 49.618 35.526 49.618 31.888 45.98 31.888 45.98 35.526 45.98 35.526"/><path class="cls-1" d="M245.269,426.275h3.637v-9.133c0-4.8,1.858-8.127,6-8.127,3.173.194,4.179,2.438,4.179,7.043v10.217h3.638V414.549c0-5.3-2.284-8.475-7.392-8.475a7.1,7.1,0,0,0-6.462,3.6h-.078v-3.134h-3.521v19.736Zm23.644,0h3.637v-9.133c0-4.8,1.858-8.127,6-8.127,3.173.194,4.179,2.438,4.179,7.043v10.217h3.638V414.549c0-5.3-2.284-8.475-7.392-8.475a7.1,7.1,0,0,0-6.462,3.6h-.078v-3.134h-3.521v19.736Zm21.98-.619a11.344,11.344,0,0,0,5.418,1.083c3.521,0,6.888-1.935,6.888-6.153,0-6.308-8.552-5.147-8.552-9.171,0-1.626,1.625-2.4,3.482-2.4a10.621,10.621,0,0,1,3.831,1.007l.31-3.174a15.212,15.212,0,0,0-4.528-.774c-3.908,0-6.965,1.974-6.965,6.076,0,5.534,8.552,5.224,8.552,8.823,0,2.128-2.051,2.825-3.715,2.825a9.712,9.712,0,0,1-4.528-1.393l-.193,3.251Zm40.361.619h3.638V417.3c0-4.954,2.128-8.049,5.379-8.049a5.381,5.381,0,0,1,2.012.348v-3.251a10.3,10.3,0,0,0-2.4-.271,6,6,0,0,0-5.147,3.522h-.077v-3.057h-3.406v19.736Zm32.506-19.736h-3.638v9.132c0,4.8-1.857,8.127-6,8.127-3.173-.193-4.179-2.438-4.179-7.043V406.539h-3.638v11.725c0,5.3,2.283,8.475,7.392,8.475a7.093,7.093,0,0,0,6.462-3.6h.077v3.135h3.522V406.539Zm19.039.309a13.635,13.635,0,0,0-4.412-.774c-6.036,0-10.061,4.335-10.061,10.333a9.982,9.982,0,0,0,10.061,10.332,11.09,11.09,0,0,0,4.567-.813l-.271-3.25a7.6,7.6,0,0,1-3.909,1.122c-4.682,0-6.578-3.87-6.578-7.391,0-3.754,2.283-7.392,6.346-7.392a10.527,10.527,0,0,1,3.947.852l.31-3.019Z" transform="translate(-189 -366)"/><path class="cls-1" d="M384.838,375.224h-5.224v-6.747l-3.637,1.16v5.587h-4.451v2.941h4.451V389.7c0,3.947,2.322,5.727,6.075,5.727a11.41,11.41,0,0,0,3.1-.541v-3.1a4.5,4.5,0,0,1-2.477.7c-1.664,0-3.057-1.238-3.057-3.521v-10.8h5.224v-2.941Z" transform="translate(-189 -366)"/><path class="cls-1" d="M421.393,375.224h-5.224v-6.747l-3.638,1.16v5.587h-4.45v2.941h4.45V389.7c0,3.947,2.322,5.727,6.076,5.727a11.4,11.4,0,0,0,3.095-.541v-3.1a4.493,4.493,0,0,1-2.476.7c-1.664,0-3.057-1.238-3.057-3.521v-10.8h5.224v-2.941Z" transform="translate(-189 -366)"/><polygon class="cls-1" points="175.037 4.304 178.674 4.304 178.674 0.667 175.037 0.667 175.037 4.304 175.037 4.304"/><polygon class="cls-1" points="93.317 4.304 96.954 4.304 96.954 0.667 93.317 0.667 93.317 4.304 93.317 4.304"/><polygon class="cls-1" points="203.062 6.123 206.7 6.123 206.7 2.485 203.062 2.485 203.062 6.123 203.062 6.123"/><polygon class="cls-1" points="209.374 6.123 213.011 6.123 213.011 2.485 209.374 2.485 209.374 6.123 209.374 6.123"/><path class="cls-1" d="M252.014,375.3h-3.637v9.133c0,4.8-1.858,8.126-6,8.126-3.173-.193-4.179-2.438-4.179-7.043V375.3h-3.638v11.726c0,5.3,2.284,8.474,7.392,8.474a7.093,7.093,0,0,0,6.462-3.6h.078v3.135h3.521V375.3Zm6.191,19.736h3.638V385.9c0-4.8,1.857-8.126,6-8.126,3.173.193,4.179,2.438,4.179,7.043v10.216h3.638V383.31c0-5.3-2.283-8.475-7.391-8.475a7.1,7.1,0,0,0-6.463,3.6h-.077V375.3h-3.522v19.736Zm24.109,0h3.637V375.3h-3.637v19.736ZM308.435,375.3H304.8l-5.456,16.1h-.078l-5.34-16.1h-3.986l7.082,19.736h4.334l7.082-19.736Zm18.652,15.286a11.664,11.664,0,0,1-6.075,1.973,6.458,6.458,0,0,1-6.5-6.578H328.6c0-6.347-2.128-11.145-8.707-11.145-5.572,0-9.248,4.14-9.248,9.984,0,6.424,3.212,10.68,10.216,10.68a15.11,15.11,0,0,0,6.23-1.277v-3.637Zm-12.577-7.314c.271-2.554,1.742-5.5,5.3-5.5,3.134,0,4.915,2.476,4.915,5.5Zm18.962,11.764h3.638v-8.978c0-4.953,2.128-8.049,5.379-8.049a5.381,5.381,0,0,1,2.012.348v-3.25a10.248,10.248,0,0,0-2.4-.271,6,6,0,0,0-5.147,3.521h-.077V375.3h-3.406v19.736Zm13.389-.619a11.346,11.346,0,0,0,5.418,1.083c3.522,0,6.888-1.935,6.888-6.153,0-6.307-8.552-5.146-8.552-9.171,0-1.625,1.625-2.4,3.483-2.4a10.63,10.63,0,0,1,3.831,1.006l.31-3.173a15.18,15.18,0,0,0-4.528-.774c-3.909,0-6.966,1.973-6.966,6.075,0,5.534,8.553,5.225,8.553,8.823,0,2.129-2.051,2.825-3.715,2.825a9.712,9.712,0,0,1-4.528-1.393l-.194,3.251Zm17.182.619h3.638V375.3h-3.638v19.736Zm26.469-15.247a9.28,9.28,0,0,1,5.727-2.012c3.638,0,4.876,1.741,4.876,5.147-1.432-.078-2.438-.078-3.87-.078-3.753,0-9.171,1.548-9.171,6.5,0,4.3,2.98,6.153,7.236,6.153a7.325,7.325,0,0,0,6.115-3.018h.077v2.554h3.406a31.045,31.045,0,0,1-.155-3.87V383c0-5.379-2.283-8.165-7.933-8.165a12.574,12.574,0,0,0-6.5,1.857l.194,3.1Zm10.6,7.585c0,2.941-1.9,5.185-5.5,5.185-1.664,0-3.676-1.122-3.676-3.212,0-3.482,4.876-3.792,6.849-3.792.774,0,1.548.077,2.322.077v1.742Z" transform="translate(-189 -366)"/></svg>