<svg viewBox="0 0 148 149" xmlns="http://www.w3.org/2000/svg" xml:space="preserve" style="fill-rule:evenodd;clip-rule:evenodd;stroke-linejoin:round;stroke-miterlimit:2"><path d="m12.966 161.238 10.439-38.114a73.415 73.415 0 0 1-9.821-36.772c.017-40.556 33.021-73.55 73.578-73.55 19.681.01 38.154 7.669 52.047 21.572 13.893 13.903 21.537 32.383 21.53 52.037-.018 40.553-33.027 73.553-73.578 73.553h-.032a73.537 73.537 0 0 1-35.159-8.954l-39.004 10.228z" style="fill:#fff;fill-rule:nonzero" transform="translate(-12.966 -12.802)"/><path d="M87.184 25.227c-33.733 0-61.166 27.423-61.178 61.13a60.979 60.979 0 0 0 9.349 32.535l1.455 2.312-6.179 22.559 23.146-6.069 2.235 1.324c9.387 5.571 20.15 8.518 31.126 8.524h.023c33.707 0 61.14-27.426 61.153-61.135a60.775 60.775 0 0 0-17.895-43.251 60.771 60.771 0 0 0-43.235-17.929z" style="fill:none;fill-rule:nonzero" transform="translate(-12.966 -12.802)"/><path d="M87.184 25.227c-33.733 0-61.166 27.423-61.178 61.13a60.979 60.979 0 0 0 9.349 32.535l1.455 2.313-6.179 22.558 23.146-6.069 2.235 1.324c9.387 5.571 20.15 8.517 31.126 8.523h.023c33.707 0 61.14-27.426 61.153-61.135a60.775 60.775 0 0 0-17.895-43.251 60.775 60.775 0 0 0-43.235-17.928z" style="fill:url(#a);fill-rule:nonzero" transform="translate(-12.966 -12.802)"/><path d="M68.772 55.603c-1.378-3.061-2.828-3.123-4.137-3.176l-3.524-.043c-1.226 0-3.218.46-4.902 2.3-1.684 1.84-6.435 6.287-6.435 15.332 0 9.045 6.588 17.785 7.506 19.013.918 1.228 12.718 20.381 31.405 27.75 15.529 6.124 18.689 4.906 22.061 4.6 3.372-.306 10.877-4.447 12.408-8.74 1.531-4.293 1.532-7.971 1.073-8.74-.459-.769-1.685-1.226-3.525-2.146-1.84-.92-10.877-5.367-12.562-5.981-1.685-.614-2.91-.919-4.137.921-1.227 1.84-4.746 5.979-5.819 7.206-1.073 1.227-2.144 1.381-3.984.462-1.84-.919-7.76-2.861-14.784-9.124-5.465-4.873-9.154-10.891-10.228-12.73-1.074-1.839-.114-2.835.808-3.751.825-.824 1.838-2.147 2.759-3.22.921-1.073 1.224-1.84 1.836-3.065.612-1.225.307-2.301-.153-3.22-.46-.919-4.032-10.011-5.666-13.647" style="fill:#fff" transform="translate(-12.966 -12.802)"/><defs><linearGradient id="a" x1="0" y1="0" x2="1" y2="0" gradientUnits="userSpaceOnUse" gradientTransform="rotate(89.66 26.577 59.497) scale(104.527)"><stop offset="0" style="stop-color:#57d163;stop-opacity:1"/><stop offset="1" style="stop-color:#23b33a;stop-opacity:1"/></linearGradient></defs></svg>