<svg xmlns="http://www.w3.org/2000/svg" xmlns:xlink="http://www.w3.org/1999/xlink" width="22" height="22" viewBox="0 0 22 22"><defs><path id="3v3qa" d="M323.578 607.067c-2.334-2.334-2.334-6.156 0-8.49a5.967 5.967 0 0 1 4.244-1.755c1.6 0 3.111.622 4.245 1.756 2.333 2.333 2.333 6.155 0 8.489a5.968 5.968 0 0 1-4.245 1.755c-1.6 0-3.11-.622-4.244-1.755zM340 613.71l-6.044-6.044a7.782 7.782 0 0 0 1.688-4.845c0-2.089-.822-4.044-2.288-5.533-1.49-1.467-3.445-2.289-5.534-2.289s-4.044.822-5.533 2.289a7.801 7.801 0 0 0-2.289 5.533c0 2.09.822 4.045 2.289 5.534a7.801 7.801 0 0 0 5.533 2.288c1.778 0 3.467-.6 4.845-1.688L338.71 615z"/></defs><g><g transform="translate(-319 -594)"><use fill="#fff" xlink:href="#3v3qa"/><use fill="#fff" fill-opacity="0" stroke="#fff" stroke-miterlimit="50" stroke-width=".5" xlink:href="#3v3qa"/></g></g></svg>